<svg xmlns="http://www.w3.org/2000/svg" xmlns:xlink="http://www.w3.org/1999/xlink" width="40" zoomAndPan="magnify" viewBox="0 0 30 56.999997" height="76" preserveAspectRatio="xMidYMid meet" version="1.0"><defs><clipPath id="a682bc7ff2"><path d="M 14.0625 2.3125 L 20.484375 2.3125 L 20.484375 47.351562 L 14.0625 47.351562 Z M 14.0625 2.3125 " clip-rule="nonzero"/></clipPath><clipPath id="8806297b42"><path d="M 20.464844 3.496094 C 17.605469 41.101562 17.375 45.472656 16.324219 46.753906 C 15.972656 47.222656 15.390625 47.398438 15.042969 47.28125 C 14.691406 47.222656 14.167969 46.582031 14.167969 46.230469 C 14.167969 45.824219 14.984375 45.007812 15.332031 45.007812 C 15.742188 45.007812 16.5 45.882812 16.5 46.289062 C 16.441406 46.640625 15.566406 47.398438 15.15625 47.339844 C 14.808594 47.28125 14.339844 46.699219 14.167969 45.941406 C 13.640625 43.722656 15.914062 37.253906 16.558594 31.65625 C 17.429688 23.785156 16.613281 6.003906 18.1875 3.207031 C 18.539062 2.566406 19.0625 2.273438 19.414062 2.332031 C 19.820312 2.390625 20.464844 3.496094 20.464844 3.496094 " clip-rule="nonzero"/></clipPath><clipPath id="3994c1ea41"><path d="M 2.253906 35.71875 L 27.503906 35.71875 L 27.503906 54.207031 L 2.253906 54.207031 Z M 2.253906 35.71875 " clip-rule="nonzero"/></clipPath><clipPath id="2266267fd0"><path d="M 4.371094 36.203125 C 14.457031 52.0625 14.226562 51.304688 14.574219 50.777344 C 15.449219 49.4375 18.773438 46.753906 20.753906 45.066406 C 22.503906 43.550781 24.601562 41.21875 25.828125 40.925781 C 26.351562 40.808594 26.933594 40.925781 27.167969 41.21875 C 27.402344 41.507812 27.457031 42.324219 27.226562 42.617188 C 27.109375 42.90625 26.585938 43.140625 26.292969 43.140625 C 25.941406 43.082031 25.300781 42.617188 25.183594 42.265625 C 25.070312 41.976562 25.183594 41.449219 25.417969 41.21875 C 25.652344 40.925781 26.46875 40.75 26.816406 40.925781 C 27.109375 41.101562 27.515625 41.683594 27.457031 42.148438 C 27.34375 42.964844 26.175781 43.839844 25.011719 44.949219 C 22.679688 47.222656 15.972656 54.277344 13.582031 54.160156 C 12.476562 54.160156 12.183594 53.109375 11.25 51.945312 C 9.09375 49.320312 2.566406 39.644531 2.332031 37.253906 C 2.273438 36.554688 2.566406 35.96875 2.914062 35.796875 C 3.207031 35.621094 4.371094 36.203125 4.371094 36.203125 " clip-rule="nonzero"/></clipPath></defs><g clip-path="url(#a682bc7ff2)"><g clip-path="url(#8806297b42)"><path fill="#0571d3" d="M 11.835938 0 L 22.792969 0 L 22.792969 49.664062 L 11.835938 49.664062 Z M 11.835938 0 " fill-opacity="1" fill-rule="nonzero"/></g></g><g clip-path="url(#3994c1ea41)"><g clip-path="url(#2266267fd0)"><path fill="#0571d3" d="M 0 33.464844 L 29.761719 33.464844 L 29.761719 56.550781 L 0 56.550781 Z M 0 33.464844 " fill-opacity="1" fill-rule="nonzero"/></g></g></svg>