<svg xmlns="http://www.w3.org/2000/svg" xmlns:xlink="http://www.w3.org/1999/xlink" width="216" zoomAndPan="magnify" viewBox="0 0 162 28.499999" height="38" preserveAspectRatio="xMidYMid meet" version="1.0"><defs><clipPath id="7259840aa6"><path d="M 23.683594 2.320312 L 126.9375 2.320312 L 126.9375 13.609375 L 23.683594 13.609375 Z M 23.683594 2.320312 " clip-rule="nonzero"/></clipPath><clipPath id="a529f54173"><path d="M 24.46875 10.835938 C 32.207031 8.550781 45.621094 7.222656 54.613281 6.339844 C 63.53125 5.453125 71.269531 4.789062 81.292969 4.273438 C 94.195312 3.613281 121.539062 1.253906 125.667969 2.949219 C 126.550781 3.316406 126.917969 3.832031 126.917969 4.273438 C 126.917969 4.789062 126.035156 5.898438 125.519531 5.898438 C 125.003906 5.898438 123.972656 4.9375 123.972656 4.421875 C 123.972656 3.90625 125.003906 2.949219 125.519531 2.949219 C 125.960938 2.949219 126.773438 3.683594 126.917969 4.128906 C 126.992188 4.570312 126.84375 5.234375 126.109375 5.75 C 122.277344 8.253906 87.78125 6.78125 74.660156 7.59375 C 66.554688 8.109375 62.058594 8.476562 54.980469 9.214844 C 46.800781 10.097656 32.796875 11.5 28.300781 12.53125 C 26.75 12.898438 26.089844 13.710938 25.277344 13.5625 C 24.6875 13.414062 23.878906 12.824219 23.730469 12.382812 C 23.65625 11.941406 24.46875 10.835938 24.46875 10.835938 " clip-rule="nonzero"/></clipPath><clipPath id="4ceb029ccb"><path d="M 4.296875 8.597656 L 157.039062 8.597656 L 157.039062 24.601562 L 4.296875 24.601562 Z M 4.296875 8.597656 " clip-rule="nonzero"/></clipPath><clipPath id="80e7c190f0"><path d="M 5.082031 21.667969 C 10.167969 19.902344 12.15625 19.972656 16.652344 19.53125 C 33.015625 17.984375 106.132812 11.128906 130.382812 9.804688 C 141.734375 9.140625 152.347656 7.960938 155.519531 9.140625 C 156.402344 9.433594 156.917969 9.949219 156.992188 10.464844 C 156.992188 10.910156 156.035156 12.015625 155.519531 12.089844 C 155.074219 12.160156 154.484375 11.71875 154.265625 11.351562 C 154.042969 11.054688 154.042969 10.394531 154.191406 10.023438 C 154.339844 9.65625 154.855469 9.214844 155.296875 9.140625 C 155.664062 9.066406 156.328125 9.285156 156.550781 9.582031 C 156.84375 9.875 157.066406 10.539062 156.992188 10.910156 C 156.84375 11.351562 156.476562 11.792969 156.035156 12.015625 C 155.664062 12.160156 155 12.089844 154.707031 11.867188 C 154.339844 11.644531 153.96875 11.054688 154.042969 10.613281 C 154.117188 10.097656 155.074219 9.140625 155.589844 9.140625 C 156.035156 9.140625 156.917969 9.949219 156.992188 10.464844 C 157.066406 10.980469 156.769531 11.867188 155.8125 12.382812 C 152.496094 14.371094 137.902344 12.457031 124.265625 13.195312 C 99.132812 14.59375 34.492188 20.195312 17.023438 22.480469 C 11.273438 23.21875 7.589844 24.914062 5.746094 24.46875 C 5.007812 24.324219 4.492188 23.953125 4.34375 23.511719 C 4.199219 22.996094 5.082031 21.667969 5.082031 21.667969 " clip-rule="nonzero"/></clipPath></defs><g clip-path="url(#7259840aa6)"><g clip-path="url(#a529f54173)"><path fill="#0571d3" d="M 20.78125 0 L 129.839844 0 L 129.839844 16.511719 L 20.78125 16.511719 Z M 20.78125 0 " fill-opacity="1" fill-rule="nonzero"/></g></g><g clip-path="url(#4ceb029ccb)"><g clip-path="url(#80e7c190f0)"><path fill="#0571d3" d="M 1.398438 6.191406 L 159.941406 6.191406 L 159.941406 27.417969 L 1.398438 27.417969 Z M 1.398438 6.191406 " fill-opacity="1" fill-rule="nonzero"/></g></g></svg>